# xmcd
#
# Track frame offsets: 
#        150
#        33188
#        70709
#        108092
#        129292
#        156046
#        280654
#
# Disc length: 4222 seconds
#
# Revision: 0
# Processed by: cddbd v1.5.1PL0 Copyright (c) Steve Scherf et al.
# Submitted via: ExactAudioCopy v0.95a5
#
DISCID=4c107c07
DTITLE=Jimi Hendrix - Blues Outtakes [CD1]
DYEAR=1900
DGENRE=Bootleg
TTITLE0=Electric Church - Red House
TTITLE1=Born Under A Bad Sign
TTITLE2=Once I Had A Woman
TTITLE3=Easy Blues
TTITLE4=Mannish Boy
TTITLE5=Villanova Junction Jam
TTITLE6=Mother, Mother
EXTD=
EXTT0=
EXTT1=
EXTT2=
EXTT3=
EXTT4=
EXTT5=
EXTT6=
PLAYORDER=
